<svg width="66" height="62" viewBox="0 0 66 62" fill="none" xmlns="http://www.w3.org/2000/svg">
<path fill-rule="evenodd" clip-rule="evenodd" d="M35.306 46.1181C35.306 47.3584 36.35 48.3869 37.6089 48.3869H37.6395C38.8984 48.3869 39.9424 47.3584 39.9424 46.1181V42.1855C42.3067 41.8527 44.1797 40.0375 44.5175 37.7081H48.5704C49.8293 37.7081 50.8733 36.6796 50.8733 35.4393C50.8733 34.199 49.8293 33.1705 48.5704 33.1705H44.5788V28.7236H48.5704C49.8293 28.7236 50.8733 27.6951 50.8733 26.4548C50.8733 25.2144 49.8293 24.1859 48.5704 24.1859H44.5175C44.1797 21.7961 42.276 19.9204 39.881 19.6179V15.8668C39.881 14.6265 38.837 13.5979 37.5781 13.5979C36.3192 13.5979 35.2753 14.6265 35.2753 15.8668V19.5876H30.6082V15.8668C30.6082 14.6265 29.5642 13.5979 28.3053 13.5979C27.0464 13.5979 26.0025 14.6265 26.0025 15.8668V19.6785C23.7303 20.0718 21.9494 21.9171 21.6423 24.1859H17.5893C16.3304 24.1859 15.2864 25.2144 15.2864 26.4548C15.2864 27.6951 16.3304 28.7236 17.5893 28.7236H21.581V33.1705H17.5893C16.3304 33.1705 15.2864 34.199 15.2864 35.4393C15.2864 36.6796 16.3304 37.7081 17.5893 37.7081H21.6423C21.9801 39.977 23.761 41.7619 26.0025 42.1552V46.1181C26.0025 47.3584 27.0464 48.3869 28.3053 48.3869C29.5642 48.3869 30.6082 47.3584 30.6082 46.1181V42.2458H35.306V46.1181ZM26.2173 36.9519V24.8816C26.2173 24.4581 26.5551 24.1253 26.985 24.1253H39.1748C39.6046 24.1253 39.9424 24.4581 39.9424 24.8816V36.9519C39.9424 37.3754 39.6046 37.7081 39.1748 37.7081H26.985C26.5551 37.7081 26.2173 37.3754 26.2173 36.9519Z" fill="#23F6F0"/>
<path fill-rule="evenodd" clip-rule="evenodd" d="M8.3441 62H8.9275C12.5507 62 15.529 61.0621 18.2617 59.0958C18.6916 58.763 19.0293 58.521 19.3056 58.3395C19.7048 58.4908 20.319 58.7329 20.9024 58.9749C22.499 59.6404 24.372 60.064 26.1836 60.185C30.6358 60.4875 35.3643 60.4875 39.8165 60.185C53.7565 59.2775 64.9637 48.0844 65.8849 34.1688C66.0384 31.5671 66.0384 28.8445 65.8849 26.2429C64.9637 12.3273 53.7565 1.13442 39.8165 0.226885C35.3643 -0.0756283 30.6358 -0.0756283 26.1836 0.226885C12.2436 1.13442 1.03629 12.3273 0.115143 26.2429C-0.038381 28.8445 -0.038381 31.5671 0.115143 34.1688C0.391486 38.5854 2.17244 43.2139 5.27362 47.7818C6.28688 49.5667 5.27363 52.2287 4.22967 54.1648C2.94007 56.5547 2.01884 58.2791 3.09351 60.0942C4.15527 61.8874 6.05628 61.9385 8.26343 61.9978L8.3441 62ZM8.46685 57.432H7.66859L7.69923 57.4017C7.88346 57.0387 8.09843 56.6153 8.31336 56.2221C10.5855 51.9869 10.9233 48.3869 9.20383 45.3618C6.4711 41.2779 4.9665 37.4057 4.72086 33.8058C4.56734 31.4159 4.56734 28.8748 4.72086 26.485C5.48848 14.8382 14.8535 5.4603 26.4906 4.70402C30.7279 4.43176 35.2415 4.43176 39.5095 4.70402C51.1466 5.4603 60.5115 14.8382 61.2791 26.485C61.4327 28.8748 61.4327 31.4159 61.2791 33.8058C60.5115 45.4525 51.1466 54.8305 39.5095 55.5867C35.2415 55.859 30.7586 55.859 26.4906 55.5867C25.1703 55.5262 23.7886 55.1934 22.6525 54.7396C20.5953 53.8926 19.7355 53.5599 18.7222 53.6809C17.7334 53.799 17.0078 54.3205 15.6035 55.3296L15.4983 55.4052C13.4718 56.8876 11.261 57.5228 8.46685 57.432Z" fill="#23F6F0"/>
</svg>
