<svg width="63" height="61" viewBox="0 0 63 61" fill="none" xmlns="http://www.w3.org/2000/svg">
<path d="M58.9129 9.90179H57.6946V3.84348C57.6935 2.87975 57.3081 1.95578 56.6228 1.27432C55.9376 0.592857 55.0086 0.209548 54.0395 0.208496H4.08709C3.11804 0.209548 2.18897 0.592857 1.50375 1.27432C0.81852 1.95578 0.433095 2.87975 0.432037 3.84348V37.77C0.433095 38.7337 0.81852 39.6577 1.50375 40.3392C2.18897 41.0206 3.11804 41.4039 4.08709 41.405H10.1788V49.8866C10.1789 50.208 10.3073 50.5161 10.5358 50.7433C10.7642 50.9705 11.0741 51.0982 11.3972 51.0983H36.6138L50.9269 60.588C51.1105 60.7095 51.3237 60.7791 51.5439 60.7896C51.7641 60.8001 51.983 60.751 52.1773 60.6476C52.3717 60.5442 52.5342 60.3902 52.6476 60.2022C52.761 60.0142 52.8209 59.7992 52.8212 59.5799V51.0983H58.9129C59.882 51.0972 60.811 50.7139 61.4963 50.0325C62.1815 49.351 62.5669 48.427 62.568 47.4633V13.5368C62.5669 12.573 62.1815 11.6491 61.4963 10.9676C60.811 10.2862 59.882 9.90284 58.9129 9.90179ZM11.3972 38.9817H4.08709C3.76406 38.9813 3.45436 38.8536 3.22594 38.6264C2.99753 38.3993 2.86906 38.0913 2.86874 37.77V3.84348C2.86906 3.52223 2.99753 3.21422 3.22594 2.98706C3.45436 2.7599 3.76406 2.63214 4.08709 2.63182H54.0395C54.3625 2.63214 54.6722 2.7599 54.9007 2.98706C55.1291 3.21422 55.2575 3.52223 55.2579 3.84348V37.77C55.2575 38.0913 55.1291 38.3993 54.9007 38.6264C54.6722 38.8536 54.3625 38.9813 54.0395 38.9817H26.0174C25.7769 38.9818 25.5418 39.0526 25.3416 39.1852L12.6156 47.623V40.1933C12.6156 40.0342 12.5841 39.8766 12.5229 39.7296C12.4617 39.5826 12.3719 39.449 12.2588 39.3365C12.1457 39.2239 12.0113 39.1347 11.8635 39.0738C11.7157 39.0129 11.5572 38.9816 11.3972 38.9817ZM60.1313 47.4633C60.1309 47.7846 60.0025 48.0926 59.7741 48.3197C59.5456 48.5469 59.2359 48.6746 58.9129 48.675H51.6028C51.4428 48.6749 51.2843 48.7062 51.1365 48.7671C50.9887 48.828 50.8543 48.9172 50.7412 49.0298C50.6281 49.1423 50.5383 49.2759 50.4771 49.4229C50.4159 49.5699 50.3844 49.7275 50.3844 49.8866V57.3163L37.6584 48.8785C37.4582 48.7459 37.2231 48.6751 36.9826 48.675H15.4211L26.3862 41.405H54.0395C55.0086 41.4039 55.9376 41.0206 56.6228 40.3392C57.3081 39.6577 57.6935 38.7337 57.6946 37.77V12.3251H58.9129C59.2359 12.3254 59.5456 12.4532 59.7741 12.6804C60.0025 12.9075 60.1309 13.2155 60.1313 13.5368V47.4633Z" fill="url(#paint0_linear_261_429)"/>
<path d="M28.5838 35.3466C28.7438 35.3466 28.9023 35.3153 29.0501 35.2544C29.1979 35.1936 29.3323 35.1043 29.4454 34.9918C29.5586 34.8793 29.6483 34.7457 29.7095 34.5987C29.7707 34.4516 29.8022 34.2941 29.8022 34.1349V11.4151L45.6693 34.2651C45.847 34.5649 46.1195 34.7978 46.4443 34.9275C46.769 35.0572 47.1278 35.0764 47.4647 34.9821C47.8192 34.8518 48.1208 34.6092 48.3231 34.2917C48.5254 33.9742 48.6172 33.5994 48.5843 33.225L48.3344 7.46654C48.3312 7.14726 48.2015 6.84214 47.9733 6.61748C47.7452 6.39282 47.4371 6.26677 47.1161 6.26672H47.1042C46.9442 6.26818 46.786 6.301 46.6387 6.36329C46.4915 6.42559 46.358 6.51614 46.246 6.62977C46.1339 6.7434 46.0455 6.87788 45.9857 7.02552C45.926 7.17317 45.8961 7.33107 45.8977 7.49022L46.122 30.6526L29.5862 6.83942C29.4387 6.62671 29.2266 6.46649 28.981 6.38219C28.7353 6.29788 28.469 6.2939 28.221 6.37083C27.9729 6.44775 27.7561 6.60155 27.6021 6.80976C27.4482 7.01796 27.3653 7.26966 27.3655 7.52808V34.1349C27.3654 34.2941 27.3969 34.4516 27.4581 34.5987C27.5193 34.7457 27.6091 34.8793 27.7222 34.9918C27.8354 35.1043 27.9697 35.1936 28.1175 35.2544C28.2654 35.3153 28.4238 35.3466 28.5838 35.3466Z" fill="url(#paint1_linear_261_429)"/>
<path d="M23.1696 34.0131C23.1697 33.854 23.1382 33.6964 23.077 33.5494C23.0158 33.4023 22.926 33.2688 22.8129 33.1562C22.6998 33.0437 22.5654 32.9545 22.4176 32.8936C22.2698 32.8327 22.1113 32.8014 21.9513 32.8014H11.979V22.0184H21.1262C21.4493 22.0184 21.7592 21.8907 21.9877 21.6635C22.2162 21.4363 22.3445 21.1281 22.3445 20.8067C22.3445 20.4854 22.2162 20.1772 21.9877 19.9499C21.7592 19.7227 21.4493 19.595 21.1262 19.595H11.979V8.81197H21.9513C22.2744 8.81197 22.5843 8.68431 22.8128 8.45708C23.0413 8.22985 23.1696 7.92166 23.1696 7.60031C23.1696 7.27896 23.0413 6.97077 22.8128 6.74354C22.5843 6.5163 22.2744 6.38865 21.9513 6.38865H10.7607C10.6007 6.38861 10.4422 6.41992 10.2944 6.48079C10.1465 6.54167 10.0122 6.63092 9.89906 6.74344C9.78592 6.85596 9.69618 6.98955 9.63496 7.13658C9.57375 7.2836 9.54227 7.44118 9.54231 7.60031V34.0131C9.54227 34.1722 9.57375 34.3298 9.63496 34.4768C9.69618 34.6239 9.78592 34.7575 9.89906 34.87C10.0122 34.9825 10.1465 35.0717 10.2944 35.1326C10.4422 35.1935 10.6007 35.2248 10.7607 35.2248H21.9513C22.1113 35.2248 22.2698 35.1935 22.4176 35.1326C22.5654 35.0717 22.6998 34.9825 22.8129 34.87C22.926 34.7575 23.0158 34.6239 23.077 34.4768C23.1382 34.3298 23.1697 34.1722 23.1696 34.0131Z" fill="url(#paint2_linear_261_429)"/>
<defs>
<linearGradient id="paint0_linear_261_429" x1="5.81583" y1="3.7085" x2="49.9586" y2="57.3259" gradientUnits="userSpaceOnUse">
<stop stop-color="#43C3DA"/>
<stop offset="0.205769" stop-color="#BBDBE4"/>
<stop offset="0.506082" stop-color="#B87EA7"/>
<stop offset="1" stop-color="#271A3D"/>
</linearGradient>
<linearGradient id="paint1_linear_261_429" x1="5.81583" y1="3.7085" x2="49.9586" y2="57.3259" gradientUnits="userSpaceOnUse">
<stop stop-color="#43C3DA"/>
<stop offset="0.205769" stop-color="#BBDBE4"/>
<stop offset="0.506082" stop-color="#B87EA7"/>
<stop offset="1" stop-color="#271A3D"/>
</linearGradient>
<linearGradient id="paint2_linear_261_429" x1="5.81583" y1="3.7085" x2="49.9586" y2="57.3259" gradientUnits="userSpaceOnUse">
<stop stop-color="#43C3DA"/>
<stop offset="0.205769" stop-color="#BBDBE4"/>
<stop offset="0.506082" stop-color="#B87EA7"/>
<stop offset="1" stop-color="#271A3D"/>
</linearGradient>
</defs>
</svg>
