<svg width="28" height="28" viewBox="0 0 28 28" fill="none" xmlns="http://www.w3.org/2000/svg">
<path d="M17.75 16.1875C17.2375 16.1875 16.8125 15.7625 16.8125 15.25V14C16.8125 13.4875 17.2375 13.0625 17.75 13.0625C18.2625 13.0625 18.6875 13.4875 18.6875 14V15.25C18.6875 15.7625 18.2625 16.1875 17.75 16.1875Z" fill="white"/>
<path d="M10.25 16.1875C9.7375 16.1875 9.3125 15.7625 9.3125 15.25V14C9.3125 13.4875 9.7375 13.0625 10.25 13.0625C10.7625 13.0625 11.1875 13.4875 11.1875 14V15.25C11.1875 15.7625 10.7625 16.1875 10.25 16.1875Z" fill="white"/>
<path d="M10.9379 20.3749C11.0502 20.4623 12.0731 21.1859 13.994 21.1874C13.992 21.1874 13.9899 21.1874 13.9878 21.1874H14.0003C13.9982 21.1874 13.9961 21.1874 13.994 21.1874C15.915 21.1859 16.9378 20.4623 17.0502 20.3749C17.4627 20.0749 17.5503 19.5 17.2503 19.0875C16.9503 18.6625 16.3754 18.575 15.9504 18.8625C15.9254 18.8875 15.2628 19.3124 14.0003 19.3124C12.7378 19.3124 12.1002 18.9 12.0502 18.8625C11.6377 18.5625 11.0503 18.6499 10.7503 19.0624C10.4378 19.4749 10.5254 20.0624 10.9379 20.3749Z" fill="white"/>
<path fill-rule="evenodd" clip-rule="evenodd" d="M13.0625 6.02665C11.9716 5.63943 11.1875 4.59649 11.1875 3.375C11.1875 1.825 12.45 0.5625 14 0.5625C15.55 0.5625 16.8125 1.825 16.8125 3.375C16.8125 4.59649 16.0284 5.63943 14.9375 6.02665V8.0625H15.25C19.0373 8.0625 20.9376 8.0625 22.3125 9.43747C23.0644 10.1893 23.4051 11.1355 23.5595 12.4375C24.7319 12.4384 25.4067 12.4558 26.025 12.8125C26.45 13.0625 26.8124 13.4125 27.0624 13.85C27.4374 14.5 27.4375 15.2125 27.4375 16.5C27.4375 17.7875 27.4374 18.5 27.0624 19.15C26.8249 19.575 26.4625 19.9375 26.025 20.1875C25.4067 20.5442 24.7319 20.5616 23.5595 20.5625C23.4051 21.8645 23.0644 22.8107 22.3125 23.5625C20.9376 24.9375 19.0376 24.9375 15.2503 24.9375H14.6C14.05 25.8875 12.5875 27.4375 9 27.4375C8.625 27.4375 8.27507 27.2125 8.13757 26.8625C8.00007 26.5125 8.07496 26.1125 8.33746 25.8375C8.48746 25.6875 8.81255 25.2875 9.05005 24.85C7.58755 24.725 6.52497 24.4 5.68747 23.5625C4.93463 22.8097 4.594 21.8657 4.43987 20.5625C3.26784 20.5616 2.59317 20.5441 1.97501 20.1875C1.55001 19.9375 1.18756 19.5875 0.937561 19.15C0.562561 18.5 0.5625 17.7875 0.5625 16.5C0.5625 15.2125 0.562561 14.5 0.937561 13.85C1.17506 13.425 1.53751 13.0625 1.97501 12.8125C2.59317 12.4559 3.26784 12.4384 4.43987 12.4375C4.594 11.1343 4.93463 10.1903 5.68747 9.43747C7.06244 8.0625 8.96242 8.0625 12.7497 8.0625H13.0625V6.02665ZM13.8486 9.92499H12.7625L12.75 9.9375C9.47526 9.9375 7.83751 9.9375 7.01254 10.7625C6.18754 11.5875 6.1875 13.225 6.1875 16.5C6.1875 19.775 6.18754 21.4125 7.01254 22.2375C7.55004 22.775 8.40002 22.9875 10.275 23.0375C10.7875 23.05 11.1875 23.4625 11.1875 23.975C11.1875 24.4875 11.0625 24.925 10.8875 25.35C12.6826 24.9072 13.057 23.8802 13.0966 23.7714L13.1 23.7625C13.2 23.35 13.575 23.05 14.0125 23.05H15.2625C18.5372 23.05 20.175 23.05 21 22.225C21.825 21.4 21.825 19.7625 21.825 16.4875C21.825 13.2125 21.825 11.575 21 10.75C20.175 9.92503 18.5375 9.92499 15.2625 9.92499H14.1514C14.102 9.93322 14.0515 9.9375 14 9.9375C13.9485 9.9375 13.898 9.93322 13.8486 9.92499ZM14 4.3125C14.5125 4.3125 14.9375 3.8875 14.9375 3.375C14.9375 2.8625 14.5125 2.4375 14 2.4375C13.4875 2.4375 13.0625 2.8625 13.0625 3.375C13.0625 3.8875 13.4875 4.3125 14 4.3125ZM4.32697 14.3127C3.59216 14.3141 3.09916 14.3268 2.89999 14.4375C2.74999 14.525 2.63747 14.6375 2.56247 14.775C2.4375 14.9999 2.4375 15.5997 2.4375 16.4993V16.5007C2.4375 17.4003 2.4375 18.0001 2.56247 18.225C2.63747 18.3625 2.76249 18.4875 2.89999 18.5625C3.09916 18.6732 3.59216 18.6859 4.32697 18.6873C4.3125 18.0309 4.3125 17.3055 4.3125 16.5002C4.3125 15.695 4.3125 14.9691 4.32697 14.3127ZM23.6875 16.4998C23.6875 15.6952 23.6875 14.9697 23.6729 14.3127C24.4078 14.3141 24.9008 14.3268 25.1 14.4375C25.2375 14.5125 25.3625 14.6375 25.4375 14.775C25.5625 14.9999 25.5625 15.5997 25.5625 16.4993V16.5007C25.5625 17.4003 25.5625 18.0001 25.4375 18.225C25.3625 18.3625 25.25 18.475 25.1 18.5625C24.9008 18.6732 24.4078 18.6859 23.6729 18.6873C23.6875 18.0303 23.6875 17.3043 23.6875 16.4998Z" fill="white"/>
</svg>
