<svg width="45" height="45" viewBox="0 0 45 45" fill="none" xmlns="http://www.w3.org/2000/svg">
<path d="M33.8069 13.1819C34.356 12.6327 34.356 11.7423 33.8069 11.1931C33.2577 10.644 32.3673 10.644 31.8181 11.1931L29.9431 13.0681C29.394 13.6173 29.394 14.5077 29.9431 15.0569C30.4923 15.606 31.3827 15.606 31.9319 15.0569L33.8069 13.1819Z" fill="#161616"/>
<path fill-rule="evenodd" clip-rule="evenodd" d="M29.0625 3.28125C22.0726 3.28125 16.4062 8.94765 16.4062 15.9375C16.4062 17.4432 16.6698 18.8899 17.154 20.2323L3.69313 33.6931C3.42941 33.9569 3.28125 34.3145 3.28125 34.6875V40.3125C3.28125 41.0891 3.91085 41.7188 4.6875 41.7188H10.3125C11.0892 41.7188 11.7188 41.0891 11.7188 40.3125V37.9688H14.0625C14.8392 37.9688 15.4688 37.3391 15.4688 36.5625V34.2188H17.8125C18.1855 34.2188 18.5431 34.0706 18.8069 33.8069L24.7677 27.846C26.1101 28.3302 27.5568 28.5938 29.0625 28.5938C36.0524 28.5938 41.7188 22.9274 41.7188 15.9375C41.7188 8.94765 36.0524 3.28125 29.0625 3.28125ZM19.2188 15.9375C19.2188 10.5009 23.6259 6.09375 29.0625 6.09375C34.4991 6.09375 38.9062 10.5009 38.9062 15.9375C38.9062 21.3741 34.4991 25.7812 29.0625 25.7812C27.6155 25.7812 26.245 25.4699 25.0112 24.912C24.478 24.6708 23.8512 24.7851 23.4374 25.1989L17.23 31.4062H14.0625C13.2858 31.4062 12.6562 32.0359 12.6562 32.8125V35.1562H10.3125C9.53585 35.1562 8.90625 35.7859 8.90625 36.5625V38.9062H6.09375V35.27L19.8011 21.5626C20.2149 21.1488 20.3292 20.522 20.088 19.9888C19.5301 18.755 19.2188 17.3845 19.2188 15.9375Z" fill="#161616"/>
</svg>
