<svg width="423" height="406" viewBox="0 0 423 406" fill="none" xmlns="http://www.w3.org/2000/svg">
<path opacity="0.07" d="M371.363 205.134C371.363 280.206 327.426 315.662 273.256 284.419C219.086 253.176 175.203 166.942 175.203 91.9246C175.203 16.8529 219.141 -18.6037 273.311 12.6397C327.48 43.8831 371.363 130.062 371.363 205.134Z" fill="url(#paint0_linear_759_1967)"/>
<path opacity="0.4" d="M228.772 47.2753C215.858 39.8338 203.109 36.0036 191.236 35.9483C179.362 35.8942 168.528 39.6697 159.39 47.0565C150.253 54.4433 143.03 65.2225 138.106 78.847C133.181 92.4715 130.609 108.723 130.609 126.56L228.717 183.138L228.772 47.2753Z" fill="url(#paint1_linear_759_1967)"/>
<path opacity="0.2" d="M152.496 107.738C152.496 134.604 158.241 164.206 169.021 192.768C179.8 221.33 195.121 247.594 213.013 268.223C230.906 288.851 250.658 302.913 269.7 308.659C288.741 314.404 306.196 311.559 319.93 300.451C333.664 289.343 342.966 270.521 346.796 246.391C350.572 222.206 348.656 193.753 341.215 164.643C333.773 135.534 321.243 107.026 305.102 82.7868C288.96 58.5472 270.028 39.6151 250.604 28.4529V164.37L152.496 107.738Z" fill="url(#paint2_linear_759_1967)"/>
<path opacity="0.3" d="M180.127 93.949L17.3438 0L17.3985 84.866L165.846 170.553L180.236 191.838L180.127 93.949Z" fill="url(#paint3_linear_759_1967)"/>
<path fill-rule="evenodd" clip-rule="evenodd" d="M0 33.049V10.0132L61.4472 45.4698V68.5056L0 33.049Z" fill="#F7AEF3"/>
<path opacity="0.15" d="M138.269 90.4471L102.594 69.8735V77.315L138.269 97.8886V90.4471Z" fill="white"/>
<path opacity="0.15" d="M138.322 105.385L69.543 65.7153V73.1568L138.322 112.827V105.385Z" fill="white"/>
<path opacity="0.15" d="M138.326 120.268L54.9922 72.2266V79.6681L138.326 127.764V120.268Z" fill="white"/>
<path fill-rule="evenodd" clip-rule="evenodd" d="M147.082 103.306C147.082 110.309 151.241 118.353 156.329 121.307C161.418 124.262 165.576 120.979 165.576 113.975C165.576 106.972 161.418 98.9282 156.329 95.9735C151.186 93.0188 147.082 96.3018 147.082 103.306Z" fill="#F7AEF3"/>
<path opacity="0.3" d="M245.625 225.215L408.463 319.219L408.517 404.085L260.07 318.398L245.734 323.104L245.625 225.215Z" fill="url(#paint4_linear_759_1967)"/>
<path fill-rule="evenodd" clip-rule="evenodd" d="M361.078 334.157V311.121L422.525 346.577V369.613L361.078 334.157Z" fill="#23F6F0"/>
<path opacity="0.15" d="M287.535 270.083L323.211 290.657V298.098L287.535 277.525V270.083Z" fill="white"/>
<path opacity="0.15" d="M287.535 284.966L351.937 322.119V329.56L287.535 292.462V284.966Z" fill="white"/>
<path opacity="0.15" d="M287.535 299.904L370.869 348V355.442L287.535 307.345V299.904Z" fill="white"/>
<path fill-rule="evenodd" clip-rule="evenodd" d="M278.729 272.764C278.729 279.768 274.57 283.051 269.482 280.096C264.393 277.141 260.234 269.098 260.234 262.094C260.234 255.09 264.393 251.807 269.482 254.762C274.57 257.717 278.729 265.76 278.729 272.764Z" fill="#F7AEF3"/>
<path opacity="0.3" d="M131.105 183.193L222.811 236.104V406L131.105 353.089V183.193Z" fill="url(#paint5_linear_759_1967)"/>
<path opacity="0.15" d="M140.129 284.036L213.778 326.551V333.992L140.129 291.477V284.036Z" fill="white"/>
<path opacity="0.15" d="M145.277 301.545L208.585 338.096V345.538L145.277 308.987V301.545Z" fill="white"/>
<path fill-rule="evenodd" clip-rule="evenodd" d="M172.027 331.913L108.227 295.089V314.075L172.027 350.9V331.913Z" fill="#23F6F0"/>
<path fill-rule="evenodd" clip-rule="evenodd" d="M187.402 250.002C187.402 258.21 182.642 262.094 176.787 258.702C170.932 255.31 166.172 245.843 166.172 237.581C166.172 229.374 170.932 225.489 176.787 228.881C182.642 232.328 187.402 241.794 187.402 250.002Z" fill="#23F6F0"/>
<path fill-rule="evenodd" clip-rule="evenodd" d="M176.793 265.323C167.327 259.796 159.502 264.994 158.134 276.868C157.915 278.947 159.447 281.683 161.362 282.777L192.223 300.834C194.138 301.928 195.67 301.053 195.451 298.7C194.083 285.13 186.259 270.849 176.793 265.323Z" fill="#23F6F0"/>
<path opacity="0.2" d="M80.0478 169.294L56.6289 155.779V147.9L80.0478 161.415C81.9629 162.509 84.7534 164.753 87.1063 168.2C89.678 171.866 91.4836 176.517 91.4836 181.551C91.4836 187.132 90.061 190.306 87.3798 191.181C84.8629 192.002 81.8534 190.579 80.0478 189.54L70.4176 183.958L70.3629 183.904C69.5421 183.411 68.2289 182.919 67.1893 183.247C66.3138 183.521 65.3836 184.341 65.3836 187.46C65.3836 190.579 66.3685 192.44 67.1346 193.589C68.1195 195.011 69.4327 195.996 70.2534 196.434L70.3629 196.489L99.8006 213.506V221.385L70.5817 204.477C68.5572 203.438 65.6572 201.194 63.1402 197.692C60.4044 193.807 58.544 188.938 58.544 183.521C58.544 178.104 60.4044 175.368 63.0855 174.602C65.6025 173.89 68.5025 174.93 70.527 176.134L80.0478 181.66C81.4157 182.481 82.4553 182.809 83.1666 182.59C83.7138 182.426 84.6987 181.66 84.6987 177.666C84.6987 175.04 83.878 173.343 83.0572 172.249C82.0723 170.772 80.8138 169.732 80.0478 169.294Z" fill="white"/>
<path fill-rule="evenodd" clip-rule="evenodd" d="M60.9006 154.083C60.9006 161.141 56.7421 164.479 51.6534 161.579C46.5647 158.624 42.4062 150.526 42.4062 143.413C42.4062 136.355 46.5647 133.017 51.6534 135.917C56.7421 138.872 60.9006 147.024 60.9006 154.083Z" fill="#F7AEF3"/>
<path fill-rule="evenodd" clip-rule="evenodd" d="M111.787 224.121C111.787 231.179 107.629 234.517 102.54 231.617C97.4515 228.662 93.293 220.564 93.293 213.451C93.293 206.392 97.4515 203.055 102.54 205.955C107.629 208.909 111.787 217.062 111.787 224.121Z" fill="#23F6F0"/>
<defs>
<linearGradient id="paint0_linear_759_1967" x1="15210" y1="8881.92" x2="5155.75" y2="13869.5" gradientUnits="userSpaceOnUse">
<stop stop-color="white"/>
<stop offset="1" stop-color="white" stop-opacity="0"/>
</linearGradient>
<linearGradient id="paint1_linear_759_1967" x1="9075.81" y1="4271.98" x2="3080.62" y2="7095.03" gradientUnits="userSpaceOnUse">
<stop stop-color="white"/>
<stop offset="1" stop-color="white" stop-opacity="0"/>
</linearGradient>
<linearGradient id="paint2_linear_759_1967" x1="13375.4" y1="8797.92" x2="7358.54" y2="15010.3" gradientUnits="userSpaceOnUse">
<stop stop-color="white"/>
<stop offset="1" stop-color="white" stop-opacity="0"/>
</linearGradient>
<linearGradient id="paint3_linear_759_1967" x1="11469.4" y1="6000.17" x2="4516.28" y2="11444.3" gradientUnits="userSpaceOnUse">
<stop stop-color="white"/>
<stop offset="1" stop-color="white" stop-opacity="0"/>
</linearGradient>
<linearGradient id="paint4_linear_759_1967" x1="7439.73" y1="501.432" x2="9539.31" y2="17531.1" gradientUnits="userSpaceOnUse">
<stop stop-color="white"/>
<stop offset="1" stop-color="white" stop-opacity="0"/>
</linearGradient>
<linearGradient id="paint5_linear_759_1967" x1="5659.36" y1="1679.93" x2="-791.102" y2="12855.4" gradientUnits="userSpaceOnUse">
<stop stop-color="white"/>
<stop offset="1" stop-color="white" stop-opacity="0"/>
</linearGradient>
</defs>
</svg>
